<svg width="52" height="16" fill="none" xmlns="http://www.w3.org/2000/svg" preserveAspectRatio="none"><mask id="mask0_23_6586" style="mask-type:alpha" maskUnits="userSpaceOnUse" x="0" y="0" width="16" height="16"><path fill="#D9D9D9" d="M0 0h16v16H0z"/></mask><g mask="url(#mask0_23_6586)"><path d="M4.575 13.377v-1.226H4a.732.732 0 01-.539-.22.733.733 0 01-.22-.538c0-.213.074-.392.22-.539a.732.732 0 01.539-.22h.575V9.382H4a.733.733 0 01-.539-.22.733.733 0 01-.22-.538c0-.213.074-.393.22-.539A.733.733 0 014 7.864h.575V2.623a.73.73 0 01.22-.539.732.732 0 01.538-.22H9c1.046 0 1.934.365 2.664 1.095.73.73 1.094 1.618 1.094 2.664s-.365 1.934-1.094 2.664c-.73.73-1.618 1.094-2.664 1.094H6.092v1.254H8c.213 0 .392.073.539.22.146.146.22.325.22.538a.733.733 0 01-.22.539.732.732 0 01-.539.22H6.092v1.225a.733.733 0 01-.22.539.733.733 0 01-.539.22.733.733 0 01-.538-.22.733.733 0 01-.22-.539zm1.517-5.513H9c.62 0 1.15-.218 1.586-.655a2.16 2.16 0 00.656-1.586c0-.62-.219-1.15-.656-1.586A2.16 2.16 0 009 3.38H6.092v4.483z" fill="#584B4D"/></g><mask id="mask1_23_6586" style="mask-type:alpha" maskUnits="userSpaceOnUse" x="12" y="0" width="16" height="16"><path fill="#D9D9D9" d="M12 0h16v16H12z"/></mask><g mask="url(#mask1_23_6586)"><path d="M16.575 13.377v-1.226H16a.733.733 0 01-.539-.22.733.733 0 01-.22-.538c0-.213.074-.392.22-.539a.733.733 0 01.539-.22h.575V9.382H16a.733.733 0 01-.539-.22.732.732 0 01-.22-.538c0-.213.074-.393.22-.539a.733.733 0 01.539-.22h.575V2.623a.73.73 0 01.22-.539.733.733 0 01.538-.22H21c1.046 0 1.934.365 2.664 1.095.73.73 1.094 1.618 1.094 2.664s-.365 1.934-1.094 2.664c-.73.73-1.618 1.094-2.664 1.094h-2.908v1.254H20c.213 0 .392.073.539.22.146.146.22.325.22.538a.733.733 0 01-.22.539.732.732 0 01-.539.22h-1.908v1.225a.733.733 0 01-.22.539.733.733 0 01-.539.22.733.733 0 01-.538-.22.733.733 0 01-.22-.539zm1.517-5.513H21c.62 0 1.15-.218 1.586-.655a2.16 2.16 0 00.656-1.586c0-.62-.219-1.15-.656-1.586A2.16 2.16 0 0021 3.38h-2.908v4.483z" fill="#5B484A"/></g><mask id="mask2_23_6586" style="mask-type:alpha" maskUnits="userSpaceOnUse" x="24" y="0" width="16" height="16"><path fill="#D9D9D9" d="M24 0h16v16H24z"/></mask><g mask="url(#mask2_23_6586)"><path d="M28.667 13.333V12H28a.645.645 0 01-.475-.192.645.645 0 01-.192-.475c0-.189.064-.347.192-.475a.645.645 0 01.475-.191h.667V9.333H28a.645.645 0 01-.475-.191.645.645 0 01-.192-.475c0-.19.064-.348.192-.475A.645.645 0 0128 8h.667V2.667a.64.64 0 01.191-.475.645.645 0 01.475-.192H33c1.022 0 1.889.356 2.6 1.067.711.71 1.067 1.577 1.067 2.6 0 1.022-.356 1.889-1.067 2.6-.711.71-1.578 1.066-2.6 1.066h-3v1.334h2c.189 0 .347.064.475.191a.645.645 0 01.192.475.645.645 0 01-.192.475A.645.645 0 0132 12h-2v1.333a.645.645 0 01-.192.475.645.645 0 01-.475.192.645.645 0 01-.475-.192.645.645 0 01-.191-.475zM30 8h3c.644 0 1.194-.228 1.65-.683a2.248 2.248 0 00.683-1.65c0-.645-.227-1.195-.683-1.65A2.248 2.248 0 0033 3.333h-3V8z" fill="#AB9C9E"/></g><mask id="mask3_23_6586" style="mask-type:alpha" maskUnits="userSpaceOnUse" x="36" y="0" width="16" height="16"><path fill="#D9D9D9" d="M36 0h16v16H36z"/></mask><g mask="url(#mask3_23_6586)"><path d="M40.667 13.333V12H40a.645.645 0 01-.475-.192.645.645 0 01-.192-.475c0-.189.064-.347.192-.475a.645.645 0 01.475-.191h.667V9.333H40a.645.645 0 01-.475-.191.645.645 0 01-.192-.475c0-.19.064-.348.192-.475A.645.645 0 0140 8h.667V2.667a.64.64 0 01.191-.475.645.645 0 01.475-.192H45c1.022 0 1.889.356 2.6 1.067.711.71 1.067 1.577 1.067 2.6 0 1.022-.356 1.889-1.067 2.6-.711.71-1.578 1.066-2.6 1.066h-3v1.334h2c.189 0 .347.064.475.191a.645.645 0 01.192.475.645.645 0 01-.192.475A.645.645 0 0144 12h-2v1.333a.645.645 0 01-.192.475.645.645 0 01-.475.192.645.645 0 01-.475-.192.645.645 0 01-.191-.475zM42 8h3c.644 0 1.194-.228 1.65-.683a2.248 2.248 0 00.683-1.65c0-.645-.227-1.195-.683-1.65A2.248 2.248 0 0045 3.333h-3V8z" fill="#AB9C9E"/></g></svg>