<svg width="25" height="18" fill="none" xmlns="http://www.w3.org/2000/svg" preserveAspectRatio="none"><g clip-path="url(#clip0_23_35267)"><path d="M25 0H0v16h25V0z" fill="#fff"/><path d="M25 3.69H0v1.23h25V3.69z" fill="#fff"/><path d="M25 4H0v2h25V4zm0-4H0v2h25V0z" fill="#CB001C"/><path d="M12.53 0H0v8h12.53V0z" fill="#2A3560"/><path d="M1.98 1l.23.72h.77l-.62.46.23.72-.61-.44-.62.44.23-.72-.61-.46h.77L1.98 1zm4 0l.23.72h.77l-.62.46.23.72-.61-.44-.62.44.23-.72-.61-.46h.77L5.98 1zm4 0l.23.72h.77l-.62.46.23.72-.61-.44-.62.44.23-.72-.61-.46h.77L9.98 1zm-6 2l.23.72h.77l-.62.46.23.72-.61-.44-.62.44.23-.72-.61-.46h.77L3.98 3zm4 0l.23.72h.77l-.62.46.23.72-.61-.44-.62.44.23-.72-.61-.46h.77L7.98 3zm-6 2l.23.72h.77l-.62.46.23.72-.61-.44-.62.44.23-.72-.61-.46h.77L1.98 5zm4 0l.23.72h.77l-.62.46.23.72-.61-.44-.62.44.23-.72-.61-.46h.77L5.98 5zm4 0l.23.72h.77l-.62.46.23.72-.61-.44-.62.44.23-.72-.61-.46h.77L9.98 5z" fill="#fff"/><path d="M25 8H0v2h25V8zm0 4H0v2h25v-2zm0 4H0v2h25v-2z" fill="#CB001C"/></g><defs><clipPath id="clip0_23_35267"><path fill="#fff" d="M0 0h25v18H0z"/></clipPath></defs></svg>