<svg width="237" height="43" fill="none" xmlns="http://www.w3.org/2000/svg" preserveAspectRatio="none"><g clip-path="url(#clip0_23_13238)"><g clip-path="url(#clip1_23_13238)"><g clip-path="url(#clip2_23_13238)" fill="#2B2B2B"><path d="M46.804 15.466h-2.04v8.203H41.48V1.061h5.842c4.328 0 6.782 2.584 6.782 7.068 0 3.525-1.485 5.943-4.07 6.884l4.91 8.656h-3.59l-4.549-8.204zm-2.04-3.101h2.52c2.298 0 3.488-1.486 3.488-4.171 0-2.685-1.19-4.033-3.451-4.033h-2.556v8.204zm24.066 5.969c-.294 3.618-2.518 5.685-6.2 5.685-3.682 0-5.786-2.326-5.786-6.395v-5.066c0-4.042 2.233-6.321 5.86-6.321 3.626 0 5.942 2.288 5.942 6.33v3.82h-8.665v1.292c0 2.316.997 3.368 2.769 3.368 1.9 0 2.713-.84 2.999-2.685l3.082-.028zm-8.849-5.813v1.458h5.537V12.52c0-2.326-1.034-3.36-2.768-3.36-1.735 0-2.769 1.034-2.769 3.36zm10.853 5.915h3.1a2.629 2.629 0 002.492 2.768c.147.014.295.014.442 0 1.652 0 2.584-.803 2.584-2.131 0-3.424-8.36-2.261-8.36-8.075 0-2.916 2.16-4.761 5.454-4.761 3.617 0 5.536 2.26 5.647 5.426h-3.027a2.353 2.353 0 00-2.085-2.593 2.592 2.592 0 00-.535 0c-1.486 0-2.39.738-2.39 1.937 0 3.23 8.397 1.966 8.397 8.075 0 2.999-2.132 5.001-5.657 5.001-3.839 0-6.035-2.519-6.063-5.647zm21.989 2.482v2.944h-1.19c-3.396 0-5.398-2.17-5.398-5.685V9.484h-2.39V6.642h2.39V2.61h3.1v4.032h3.166v2.842h-3.166v8.748c0 1.846.776 2.713 2.455 2.713l1.033-.027zm13.602-8.553V23.67h-2.556l-.221-1.587a4.194 4.194 0 01-3.784 2.003 4.946 4.946 0 01-5.232-5.233c0-3.488 2.427-5.269 6.173-5.269h2.501v-1.218c0-2.002-.738-3.137-2.454-3.137a2.383 2.383 0 00-2.575 2.187.204.204 0 000 .074h-3.128c.157-3.258 2.353-5.26 5.776-5.26 3.627.009 5.5 2.224 5.5 6.136zm-3.119 3.904h-2.482c-1.91 0-3.008.876-3.008 2.556 0 1.68 1.005 2.482 2.713 2.482a2.576 2.576 0 002.768-2.371 2.163 2.163 0 000-.342l.009-2.325zm18.262-9.626v17.025h-2.224l-.35-1.91a4.618 4.618 0 01-4.236 2.326c-2.934 0-4.78-2.095-4.78-6.746V6.643h3.138v10.529c0 2.768.738 3.94 2.39 3.94 1.651 0 2.906-1.42 2.906-3.94V6.642h3.156zm12.467-.13v3.1a5.224 5.224 0 00-2.122-.387c-2.132 0-3.488 1.393-3.488 3.94v10.502h-3.138V6.642h2.233l.351 1.975a5.426 5.426 0 016.164-2.104zm13.048 5.852V23.67h-2.546l-.231-1.587a4.154 4.154 0 01-3.774 2.003 4.937 4.937 0 01-5.233-4.614 3.76 3.76 0 010-.637c0-3.488 2.418-5.27 6.165-5.27h2.491v-1.199c0-2.002-.747-3.137-2.454-3.137a2.383 2.383 0 00-2.575 2.168.286.286 0 000 .093h-3.138c.167-3.258 2.363-5.26 5.786-5.26 3.636.009 5.509 2.224 5.509 6.136zm-3.128 3.904h-2.491c-1.901 0-2.999.876-2.999 2.556 0 1.68.996 2.482 2.713 2.482a2.593 2.593 0 002.768-2.39v-.323l.009-2.325zm18.41-3.295v10.695h-3.128v-10.53c0-2.768-.748-3.94-2.39-3.94-1.781 0-2.907 1.422-2.907 3.94v10.53h-3.138V6.643h2.233l.323 1.91a4.618 4.618 0 014.254-2.316c2.907 0 4.753 2.086 4.753 6.737zm11.138 7.944v2.944h-1.191c-3.396 0-5.398-2.17-5.398-5.685V9.484h-2.39V6.642h2.39V2.61h3.101v4.032h3.165v2.842h-3.165v8.748c0 1.846.775 2.713 2.454 2.713l1.034-.027zm9.366-3.968V7.724c0-4.614 2.519-7.041 6.626-7.041 4.106 0 6.459 2.427 6.589 6.884h-3.267c-.129-2.62-1.292-3.747-3.359-3.747s-3.294 1.19-3.294 3.94v9.173c0 2.769 1.291 3.94 3.386 3.94s3.461-1.2 3.461-3.783v-2.824h-3.59V11.36h6.783v5.749c-.065 4.429-2.612 6.911-6.681 6.911-4.07 0-6.654-2.482-6.654-7.068zm28.007-10.307v17.025h-2.233l-.323-1.91a4.617 4.617 0 01-4.227 2.326c-2.971 0-4.817-2.095-4.817-6.774V6.643h3.129v10.529c0 2.768.747 3.94 2.39 3.94 1.642 0 2.906-1.42 2.906-3.94V6.642h3.175zm12.467-.13v3.1a5.13 5.13 0 00-2.104-.387c-2.132 0-3.488 1.394-3.488 3.94v10.502h-3.128V6.642h2.187l.359 1.975a4.754 4.754 0 014.393-2.38 4.86 4.86 0 011.781.276zm13.657.13v17.025h-2.224l-.323-1.91a4.611 4.611 0 01-4.235 2.326c-2.935 0-4.78-2.095-4.78-6.746V6.643h3.137v10.529c0 2.768.738 3.94 2.39 3.94 1.652 0 2.907-1.42 2.907-3.94V6.642H237zM49.48 29.916v9.542h-.803v-8.859h-4.023l-.222 3.931a16.604 16.604 0 01-.396 3.082 2.768 2.768 0 01-.776 1.384 2.067 2.067 0 01-1.356.443h-.332v-.673h.258a1.345 1.345 0 001.015-.425 2.92 2.92 0 00.526-1.273c.16-.896.256-1.803.286-2.713l.24-4.42 5.583-.019zm4.485 8.388l2.058-5.942h.849l-3.018 8.305-.157.369a1.975 1.975 0 01-2.445 1.19v-.646l.406.046c.325-.008.64-.12.895-.323a2.16 2.16 0 00.628-.922l.35-.923-2.667-7.013h.858l2.243 5.86zm9.145 1.154h-.785v-3a5.297 5.297 0 01-1.845.36 2.85 2.85 0 01-2.04-.618 2.685 2.685 0 01-.664-1.928v-1.91h.775v1.845c-.045.537.12 1.07.462 1.486a1.985 1.985 0 001.476.443 5.99 5.99 0 001.846-.342v-3.432h.784l-.01 7.096zm2.925-7.096v6.404h3.128v-6.404h.775v6.404h3.12v-6.404h.784v7.096H65.25v-7.096h.784zm14.423 0h.784v7.096h-.784v-5.832l-3.811 5.832h-.775v-7.096h.775v5.813l3.81-5.813zm5.61 7.196a3.055 3.055 0 01-1.624-.443 2.99 2.99 0 01-1.135-1.236 3.848 3.848 0 01-.406-1.781v-.286a4.106 4.106 0 01.397-1.846c.24-.521.62-.965 1.098-1.282a2.768 2.768 0 011.532-.462 2.538 2.538 0 012.04.923c.538.68.807 1.534.756 2.4v.442h-5.048v.148c-.025.73.221 1.444.692 2.002a2.206 2.206 0 001.735.803c.382.002.759-.076 1.108-.23.362-.169.679-.422.922-.739l.49.379a2.87 2.87 0 01-2.557 1.208zm-.138-6.662a1.946 1.946 0 00-1.486.646 3.027 3.027 0 00-.738 1.735h4.245v-.083c0-.604-.205-1.19-.581-1.661a1.845 1.845 0 00-1.44-.637zm13.251 3.073a4.189 4.189 0 01-.729 2.62 2.342 2.342 0 01-1.956.924 2.638 2.638 0 01-2.224-1.015v3.598h-.775v-9.735h.72v.997a2.51 2.51 0 012.215-1.126 2.345 2.345 0 011.983.922c.525.787.777 1.724.72 2.667l.046.148zm-.784-.138a3.692 3.692 0 00-.554-2.141 1.846 1.846 0 00-1.55-.785 2.085 2.085 0 00-2.02 1.357v3.35c.167.382.447.704.802.922.374.22.802.332 1.237.323a1.773 1.773 0 001.54-.793 3.94 3.94 0 00.545-2.233zm5.26 3.727a3.086 3.086 0 01-1.634-.443 2.998 2.998 0 01-1.135-1.236 3.859 3.859 0 01-.406-1.781v-.286a4.276 4.276 0 01.397-1.846 3.234 3.234 0 011.108-1.282c.451-.3.98-.46 1.522-.462a2.536 2.536 0 012.04.923c.538.68.808 1.534.756 2.4v.442h-5.038v.148a2.94 2.94 0 00.683 2.002 2.196 2.196 0 001.734.803c.382.007.76-.072 1.108-.23a2.49 2.49 0 00.923-.739l.489.379a2.855 2.855 0 01-2.547 1.208zm-.148-6.662a1.946 1.946 0 00-1.486.646 3.03 3.03 0 00-.738 1.735h4.245v-.083a2.582 2.582 0 00-.581-1.661 1.844 1.844 0 00-1.44-.637zm6.93 6.008c.499.018.988-.146 1.375-.461a1.628 1.628 0 00.591-1.2h.757a2.174 2.174 0 01-.406 1.181c-.252.36-.592.65-.988.84a3.136 3.136 0 01-1.329.296 2.768 2.768 0 01-2.205-.923 3.922 3.922 0 01-.812-2.593v-.277a4.233 4.233 0 01.369-1.846 2.77 2.77 0 011.052-1.255 2.953 2.953 0 011.596-.433 2.706 2.706 0 011.911.692 2.516 2.516 0 01.812 1.846h-.757a1.854 1.854 0 00-.591-1.339 2.132 2.132 0 00-3.008.24 3.408 3.408 0 00-.59 2.141v.23a3.343 3.343 0 00.627 2.123 1.952 1.952 0 001.596.738zm9.357-5.905h-2.574v6.46h-.785v-6.46h-2.473v-.665h5.832V33zm.849 2.767a4.275 4.275 0 01.397-1.845c.247-.52.634-.961 1.117-1.274a3.018 3.018 0 011.642-.452 2.906 2.906 0 012.28.987c.614.731.927 1.668.876 2.621v.166a4.114 4.114 0 01-.396 1.846c-.238.52-.623.96-1.108 1.264a3.117 3.117 0 01-1.642.443 2.938 2.938 0 01-2.289-.987 3.841 3.841 0 01-.923-2.621l.046-.148zm.785.213a3.22 3.22 0 00.655 2.076 2.212 2.212 0 002.354.728 2.216 2.216 0 001.088-.728c.46-.616.692-1.373.655-2.141v-.148a3.455 3.455 0 00-.304-1.485 2.33 2.33 0 00-.84-1.043 2.095 2.095 0 00-1.237-.37 2.074 2.074 0 00-1.707.822 3.322 3.322 0 00-.664 2.14v.149zm12.827-.009a4.196 4.196 0 01-.729 2.62 2.344 2.344 0 01-1.966.923 2.617 2.617 0 01-2.215-1.015v3.6h-.784v-9.736h.729v.996a2.514 2.514 0 012.215-1.126 2.337 2.337 0 011.993.923 4.34 4.34 0 01.72 2.667l.037.148zm-.785-.139a3.687 3.687 0 00-.553-2.14 1.85 1.85 0 00-1.551-.785 2.184 2.184 0 00-1.236.35 2.106 2.106 0 00-.785 1.007v3.35c.168.382.448.703.803.922a2.29 2.29 0 001.227.323 1.773 1.773 0 001.542-.793c.406-.672.599-1.45.553-2.234zm6.977 3.627a3.976 3.976 0 01-.148-.988 2.77 2.77 0 01-1.052.83 3.226 3.226 0 01-1.347.287 2.353 2.353 0 01-1.652-.572 1.848 1.848 0 01-.646-1.403 1.85 1.85 0 01.923-1.661 4.068 4.068 0 012.399-.6h1.412v-.803a1.626 1.626 0 00-.106-.647 1.626 1.626 0 00-.356-.552 1.926 1.926 0 00-1.365-.434c-.488-.02-.968.13-1.357.424a1.241 1.241 0 00-.535 1.006h-.784a1.845 1.845 0 01.784-1.458 3.036 3.036 0 011.929-.618 2.767 2.767 0 011.845.59 2.088 2.088 0 01.701 1.652v3.34a3.95 3.95 0 00.222 1.533v.074h-.867zm-2.455-.563c.494.009.98-.123 1.403-.379a2.23 2.23 0 00.922-1.015v-1.578h-1.393a3.556 3.556 0 00-1.846.425 1.33 1.33 0 00-.212 2.131 1.67 1.67 0 001.126.388v.028zm10.593.563h-.784V36.19h-3.811v3.267h-.784v-7.096h.784v3.165h3.811v-3.165h.784v7.096zm2.954-4.531h2.039a3.09 3.09 0 011.375.286c.379.163.7.437.923.784.205.356.311.761.304 1.172a2.095 2.095 0 01-.71 1.643 2.771 2.771 0 01-1.892.618h-2.768v-7.068h.784l-.055 2.565zm0 .664v3.175h2.02c.481.029.955-.122 1.329-.425a1.63 1.63 0 00.476-1.149 1.629 1.629 0 00-.476-1.149 1.845 1.845 0 00-1.273-.452h-2.076zm7.004 3.867h-.794v-7.096h.784l.01 7.096zm9.356-1.089l2.769-6.007h.969v7.096h-.785v-5.832l-2.685 5.832h-.563l-2.768-5.934v5.934h-.776v-7.096h1.071l2.768 6.007zm10.502-6.007h.784v7.096h-.784v-5.832l-3.811 5.832h-.784v-7.096h.784v5.813l3.811-5.813zm8.564 3.607a4.263 4.263 0 01-.739 2.62 2.318 2.318 0 01-1.956.924 2.642 2.642 0 01-2.224-1.015v3.598h-.775v-9.735h.72v.997a2.506 2.506 0 012.214-1.126 2.348 2.348 0 011.984.922c.527.786.783 1.723.729 2.667l.047.148zm-.785-.138a3.583 3.583 0 00-.563-2.141 1.84 1.84 0 00-1.541-.785 2.084 2.084 0 00-2.03 1.357v3.35c.167.382.448.704.803.922.374.22.802.332 1.236.323a1.774 1.774 0 001.542-.793c.406-.671.599-1.45.553-2.233zm6.976 3.627a4.028 4.028 0 01-.157-.988c-.27.362-.629.648-1.042.83a3.23 3.23 0 01-1.348.287 2.351 2.351 0 01-1.651-.572 1.84 1.84 0 01-.628-1.43 1.85 1.85 0 01.858-1.634 4.044 4.044 0 012.39-.6h1.421v-.803a1.541 1.541 0 00-.47-1.2 1.948 1.948 0 00-1.357-.433c-.487-.02-.967.13-1.356.424a1.22 1.22 0 00-.535 1.006h-.785a1.846 1.846 0 01.785-1.458 2.98 2.98 0 011.928-.618 2.77 2.77 0 011.846.59 2.113 2.113 0 01.683 1.615v3.34c-.027.52.045 1.04.212 1.533v.11h-.794zm-2.454-.563c.49.005.972-.126 1.393-.379.407-.233.729-.588.923-1.015v-1.578h-1.403a3.55 3.55 0 00-1.845.425 1.319 1.319 0 00-.489 1.8c.068.125.159.238.267.331.324.268.734.406 1.154.388v.028zm14.109-2.926a4.183 4.183 0 01-.729 2.62 2.346 2.346 0 01-1.956.924 2.642 2.642 0 01-2.224-1.015v3.598h-.775v-9.735h.72v.997a2.506 2.506 0 012.214-1.126 2.348 2.348 0 011.984.922c.551.79.82 1.743.766 2.704v.111zm-.784-.138a3.696 3.696 0 00-.554-2.141 1.84 1.84 0 00-1.55-.785 2.085 2.085 0 00-2.021 1.357v3.35c.167.382.448.704.803.922.374.22.802.332 1.236.323a1.774 1.774 0 001.541-.793 3.924 3.924 0 00.526-2.233h.019zm7.659-3.469v7.096h-.784v-2.88h-2.197l-1.725 2.88h-.868l1.781-2.944a1.95 1.95 0 01-1.126-.738 2.102 2.102 0 01-.406-1.274 1.918 1.918 0 01.692-1.54 2.871 2.871 0 011.846-.573l2.787-.027zm-4.54 2.122a1.388 1.388 0 00.397 1.015 1.508 1.508 0 001.098.415h2.261v-2.916h-2.003a1.9 1.9 0 00-1.283.397 1.303 1.303 0 00-.47 1.089zm6.487 4.282l.341-.443c.611-.98.931-2.113.923-3.267l.12-2.694h4.18v6.404h.729v2.768h-.775v-2.076h-5.315v2.076h-.72v-2.768h.517zm.923 0h3.912V33.09h-2.676l-.083 1.845a6.46 6.46 0 01-1.181 3.83h.028zm6.478-2.999a4.102 4.102 0 01.397-1.845 2.965 2.965 0 012.768-1.726 2.88 2.88 0 012.289.987c.609.733.922 1.669.876 2.621v.166a4.26 4.26 0 01-.397 1.846c-.241.52-.629.96-1.116 1.264a3.12 3.12 0 01-1.643.443 2.943 2.943 0 01-2.298-.988 3.83 3.83 0 01-.876-2.62v-.148zm.784.212a3.227 3.227 0 00.655 2.077 2.207 2.207 0 003.101.332c.12-.102.231-.213.332-.332.46-.616.692-1.373.655-2.141v-.148a3.58 3.58 0 00-.295-1.486 2.439 2.439 0 00-.84-1.042 2.222 2.222 0 00-2.953.452 3.318 3.318 0 00-.655 2.14v.148zm11.055 2.39l2.768-6.007h.923v7.096h-.784v-5.832l-2.769 5.804h-.516l-2.769-5.933v5.96h-.775v-7.095h1.024l2.898 6.007z"/></g></g></g><path d="M18.554 9.04V5.49l.622.995c1.01 1.482 2.04 2.945 3.07 4.426l.39.585a.816.816 0 001.01.254l4.335-1.521 4.801-1.638c.447-.2.93-.306 1.419-.312a2.578 2.578 0 012.08 1.053c.413.514.639 1.153.641 1.813a3.262 3.262 0 01-.777 2.126c-.525.663-1.03 1.365-1.536 1.95-.505.585-1.186 1.599-1.827 2.379l-2.313 3.178c-.095.098-.174.21-.233.332a.841.841 0 00.194 1.014l.991 1.326 1.691 2.184c.486.604.953 1.229 1.42 1.833l1.516 1.95c.362.42.645.902.835 1.423-.018.228.022.456.117.663v.195a2.931 2.931 0 01-.447 1.444 2.713 2.713 0 01-3.052 1.306c-.836-.215-1.613-.546-2.41-.819l-5.073-1.774-1.944-.703a1.008 1.008 0 00-1.205.215 4.566 4.566 0 00-.564.8 77.725 77.725 0 01-1.944 2.69l-2.974 4.447A3.41 3.41 0 0116.3 40.57a3.88 3.88 0 01-1.01.429h-1.012a3.878 3.878 0 01-.933-.39 2.764 2.764 0 01-1.244-1.833 4.494 4.494 0 01-.097-.877V17.698a5.866 5.866 0 01.583-2.75 3.27 3.27 0 011.73-1.658 1.323 1.323 0 00.7-.877c.16-.412.251-.846.272-1.287V3.014A1.036 1.036 0 0115.832 2h.622c.253.136.506.234.584.566v8.58a4.984 4.984 0 01-.778 2.768 2.99 2.99 0 01-1.205 1.053 2.433 2.433 0 00-1.205 1.619c-.104.414-.15.84-.136 1.268v20.084a1.095 1.095 0 00.734.997c.14.048.286.067.432.056h.253a1.38 1.38 0 00.622-.623c.194-.274.369-.566.544-.839l1.05-1.502 3.304-4.875a4.655 4.655 0 011.458-1.618 2.869 2.869 0 012.04-.331c.811.231 1.609.505 2.392.819l4.781 1.657 2.644.917a.756.756 0 00.835-.254.936.936 0 00.214-.897 3.082 3.082 0 00-.641-.936c-.953-1.268-1.944-2.515-2.896-3.783-.953-1.267-1.497-1.95-2.294-2.983a3.376 3.376 0 01-.894-2.672 2.54 2.54 0 01.389-1.112c.505-.74 1.069-1.442 1.613-2.164.544-.722 1.477-1.95 2.216-2.964l2.313-3.081a.684.684 0 00.175-.507.976.976 0 00-.933-.975.908.908 0 00-.33 0l-2.722.975c-1.944.721-4.062 1.423-6.084 2.165a3.878 3.878 0 01-2.118.292 2.602 2.602 0 01-1.692-.897c-.758-1.034-1.457-2.106-2.196-3.159a2.403 2.403 0 00-.37-.604zM7.144 2a1.034 1.034 0 01.545 1.017v8.02a3.927 3.927 0 00.35 1.702c.155.328.426.586.76.724.606.29 1.114.752 1.46 1.33.41.65.663 1.386.741 2.151v23.2a.843.843 0 01-.779.84.737.737 0 01-.876-.586.57.57 0 010-.255V17.65a3.65 3.65 0 00-.585-1.957 1.66 1.66 0 00-.604-.665 3.586 3.586 0 01-1.947-2.425 6.442 6.442 0 01-.195-1.37V3.096A1.06 1.06 0 016.54 2h.604z" fill="#2B2B2B"/><path d="M7 23.728v2.13c0 .16 0 .16-.164.12L3.91 24.963c-.694-.22-1.407-.399-2.083-.657a2.578 2.578 0 01-1.207-.83 2.936 2.936 0 01-.621-1.4v-1.254a3.59 3.59 0 01.402-.995 2.7 2.7 0 011.572-1.195c.786-.239 1.553-.517 2.321-.776L6.982 17v1.99l-1.718.578-2.742.896a.89.89 0 00-.52.431 1.029 1.029 0 00-.101.703.96.96 0 00.225.432c.11.12.246.204.396.245 1.225.398 2.45.797 3.656 1.155.26.14.536.241.822.298z" fill="#2B2B2B"/><path d="M6.982 24a2.502 2.502 0 01-.77-.235 82.661 82.661 0 01-3.581-1.24.896.896 0 01-.51-.462 1.198 1.198 0 01-.1-.755c.038-.176.114-.336.221-.463a.82.82 0 01.389-.264l2.686-.961L7 19l-.018 5z" fill="#D61516"/><path d="M13.889 7.024v4.141a.68.68 0 01-.04.296.743.743 0 01-.166.26.856.856 0 01-.266.185.952.952 0 01-.325.08 1.03 1.03 0 01-.693-.126.823.823 0 01-.392-.519v-8.36a.807.807 0 01.204-.646c.161-.183.399-.302.66-.332.252-.019.504.044.708.176a.777.777 0 01.317.28c.074.117.11.25.103.384l-.11 4.18zm-3 0v4.141a.68.68 0 01-.04.296.743.743 0 01-.166.26.856.856 0 01-.266.185.952.952 0 01-.325.08 1.03 1.03 0 01-.693-.126.823.823 0 01-.392-.519v-8.36a.807.807 0 01.204-.646c.161-.183.399-.302.66-.332.252-.019.504.044.708.176a.777.777 0 01.317.28c.074.117.11.25.103.384l-.11 4.18z" fill="#2B2B2B"/><path d="M18.333 8c.183.18.335.387.452.616.746 1.074 1.453 2.167 2.218 3.22a2.76 2.76 0 001.63.954c.75.127 1.521.03 2.219-.278 1.963-.755 4.103-1.47 6.145-2.206l2.749-.994a.951.951 0 01.73.045.97.97 0 01.487.551 1.01 1.01 0 010 .338.704.704 0 01-.177.517l-2.356 3.1c-.746 1.014-1.511 1.988-2.238 3.022-.726 1.033-1.12 1.45-1.63 2.206-.217.341-.351.73-.392 1.133a3.478 3.478 0 00.903 2.723 72.382 72.382 0 012.317 3.041c.766 1.054 1.963 2.564 2.925 3.856.273.275.492.599.648.954a.967.967 0 01-.216.915.765.765 0 01-.844.258l-2.67-.934-4.83-1.69c-.79-.32-1.597-.598-2.415-.834a2.875 2.875 0 00-2.062.338 4.73 4.73 0 00-1.473 1.65l-3.337 4.968L16.056 37H15.8c-.51 0-.648-.239-.785-.656a3.448 3.448 0 010-.636V16.726a2.79 2.79 0 01.333-1.193.728.728 0 01.334-.258 4.993 4.993 0 001.541-1.471 5.065 5.065 0 00.796-1.988 8.88 8.88 0 00.255-1.769c.059-.695 0-1.272.059-2.047z" fill="#D61516"/><defs><clipPath id="clip0_23_13238"><path fill="#fff" transform="translate(0 .5)" d="M0 0h237v42H0z"/></clipPath><clipPath id="clip1_23_13238"><path fill="#fff" transform="translate(0 .5)" d="M0 0h237v42H0z"/></clipPath><clipPath id="clip2_23_13238"><path fill="#fff" transform="translate(0 .682)" d="M0 0h237v41.636H0z"/></clipPath></defs></svg>