<svg width="16" height="16" fill="none" xmlns="http://www.w3.org/2000/svg" preserveAspectRatio="none"><path d="M3 15.917a2.011 2.011 0 01-1.478-.605 2.011 2.011 0 01-.605-1.479v-1.33a.73.73 0 01.215-.537.73.73 0 01.538-.216h1.747V.655c0-.086.035-.144.105-.173.07-.03.137-.018.2.036l.613.508a.356.356 0 00.236.093.356.356 0 00.235-.093l.699-.57A.356.356 0 015.74.361c.085 0 .163.031.236.093l.699.57a.356.356 0 00.235.094.356.356 0 00.236-.093l.699-.57A.356.356 0 018.08.361c.085 0 .163.031.236.093l.698.57a.356.356 0 00.236.094.356.356 0 00.236-.093l.698-.57a.356.356 0 01.236-.094c.084 0 .163.031.235.093l.7.57a.356.356 0 00.235.094.356.356 0 00.235-.093l.699-.57a.356.356 0 01.236-.094c.084 0 .162.031.235.093l.699.57a.356.356 0 00.235.094.356.356 0 00.236-.093l.612-.508c.064-.054.131-.066.201-.036.07.029.105.087.105.173v13.178a2.01 2.01 0 01-.605 1.479 2.011 2.011 0 01-1.478.605H3zm10-1.25c.236 0 .434-.08.594-.24.16-.16.24-.358.24-.594V2.167H4.666v9.583h6.746a.73.73 0 01.538.216.73.73 0 01.216.537v1.33c0 .236.08.434.24.594.159.16.357.24.593.24zM6.285 4.042h3.478c.177 0 .326.06.445.18a.6.6 0 01.18.445c0 .177-.06.325-.18.445a.605.605 0 01-.445.18H6.285a.605.605 0 01-.445-.18.605.605 0 01-.18-.445c0-.178.06-.326.18-.446s.268-.18.445-.18zm0 2.5h3.478c.177 0 .326.06.445.18a.6.6 0 01.18.445c0 .177-.06.325-.18.445a.605.605 0 01-.445.18H6.285a.605.605 0 01-.445-.18.605.605 0 01-.18-.445c0-.178.06-.326.18-.446s.268-.18.445-.18zm5.834-1.138a.71.71 0 01-.522-.216.71.71 0 01-.216-.521.71.71 0 01.216-.522.71.71 0 01.522-.216.71.71 0 01.521.216.71.71 0 01.216.522.71.71 0 01-.216.521.71.71 0 01-.521.216zm0 2.5a.71.71 0 01-.522-.216.71.71 0 01-.216-.521.71.71 0 01.216-.522.71.71 0 01.522-.216.71.71 0 01.521.216.71.71 0 01.216.522.71.71 0 01-.216.521.71.71 0 01-.521.216zM3 14.667h7.917V13h-8.75v.833c0 .236.08.434.24.594.159.16.357.24.593.24z" fill="#584B4D"/></svg>