<svg width="16" height="16" viewBox="0 0 16 16" fill="none" xmlns="http://www.w3.org/2000/svg">
<path d="M2.99997 15.9166C2.41772 15.9166 1.92493 15.715 1.52161 15.3117C1.11831 14.9083 0.916656 14.4156 0.916656 13.8333V12.5032C0.916656 12.2885 0.988511 12.1093 1.13222 11.9656C1.27591 11.8219 1.45513 11.75 1.66986 11.75H3.41666V0.655454C3.41666 0.568926 3.45165 0.510968 3.52164 0.481579C3.59161 0.452204 3.65865 0.464225 3.72276 0.517642L4.33493 1.02564C4.40758 1.08761 4.48611 1.1186 4.57051 1.1186C4.65491 1.1186 4.73343 1.08761 4.80607 1.02564L5.5048 0.455142C5.57746 0.393169 5.65598 0.362183 5.74037 0.362183C5.82477 0.362183 5.9033 0.393169 5.97595 0.455142L6.67466 1.02564C6.74731 1.08761 6.82584 1.1186 6.91024 1.1186C6.99464 1.1186 7.07316 1.08761 7.1458 1.02564L7.84453 0.455142C7.91718 0.393169 7.99571 0.362183 8.08009 0.362183C8.1645 0.362183 8.24302 0.393169 8.31568 0.455142L9.01441 1.02564C9.08705 1.08761 9.16557 1.1186 9.24997 1.1186C9.33437 1.1186 9.41289 1.08761 9.48553 1.02564L10.1843 0.455142C10.2569 0.393169 10.3354 0.362183 10.4198 0.362183C10.5042 0.362183 10.5828 0.393169 10.6554 0.455142L11.3541 1.02564C11.4268 1.08761 11.5053 1.1186 11.5897 1.1186C11.6741 1.1186 11.7526 1.08761 11.8253 1.02564L12.524 0.455142C12.5966 0.393169 12.6752 0.362183 12.7596 0.362183C12.844 0.362183 12.9225 0.393169 12.9951 0.455142L13.6939 1.02564C13.7665 1.08761 13.845 1.1186 13.9294 1.1186C14.0138 1.1186 14.0924 1.08761 14.165 1.02564L14.7772 0.517642C14.8413 0.464225 14.9083 0.452204 14.9783 0.481579C15.0483 0.510968 15.0833 0.568926 15.0833 0.655454V13.8333C15.0833 14.4156 14.8816 14.9083 14.4783 15.3117C14.075 15.715 13.5822 15.9166 13 15.9166H2.99997ZM13 14.6666C13.2361 14.6666 13.434 14.5868 13.5937 14.4271C13.7534 14.2673 13.8333 14.0694 13.8333 13.8333V2.16664H4.66664V11.75H11.4134C11.6282 11.75 11.8074 11.8219 11.9511 11.9656C12.0948 12.1093 12.1666 12.2885 12.1666 12.5032V13.8333C12.1666 14.0694 12.2465 14.2673 12.4062 14.4271C12.5659 14.5868 12.7639 14.6666 13 14.6666ZM6.28522 4.04166H9.7628C9.94015 4.04166 10.0886 4.10149 10.2083 4.22114C10.328 4.3408 10.3878 4.48929 10.3878 4.66664C10.3878 4.84399 10.328 4.99249 10.2083 5.11214C10.0886 5.23179 9.94015 5.29162 9.7628 5.29162H6.28522C6.10787 5.29162 5.95937 5.23179 5.83972 5.11214C5.72007 4.99249 5.66024 4.84399 5.66024 4.66664C5.66024 4.48929 5.72007 4.3408 5.83972 4.22114C5.95937 4.10149 6.10787 4.04166 6.28522 4.04166ZM6.28522 6.54166H9.7628C9.94015 6.54166 10.0886 6.60149 10.2083 6.72114C10.328 6.8408 10.3878 6.9893 10.3878 7.16664C10.3878 7.34399 10.328 7.49249 10.2083 7.61214C10.0886 7.73179 9.94015 7.79162 9.7628 7.79162H6.28522C6.10787 7.79162 5.95937 7.73179 5.83972 7.61214C5.72007 7.49249 5.66024 7.34399 5.66024 7.16664C5.66024 6.9893 5.72007 6.8408 5.83972 6.72114C5.95937 6.60149 6.10787 6.54166 6.28522 6.54166ZM12.1186 5.40381C11.9145 5.40381 11.7406 5.33196 11.5969 5.18827C11.4532 5.04457 11.3814 4.8707 11.3814 4.66664C11.3814 4.46259 11.4532 4.28871 11.5969 4.14502C11.7406 4.00132 11.9145 3.92948 12.1186 3.92948C12.3226 3.92948 12.4965 4.00132 12.6402 4.14502C12.7839 4.28871 12.8557 4.46259 12.8557 4.66664C12.8557 4.8707 12.7839 5.04457 12.6402 5.18827C12.4965 5.33196 12.3226 5.40381 12.1186 5.40381ZM12.1186 7.90381C11.9145 7.90381 11.7406 7.83196 11.5969 7.68827C11.4532 7.54457 11.3814 7.3707 11.3814 7.16664C11.3814 6.96259 11.4532 6.78871 11.5969 6.64502C11.7406 6.50132 11.9145 6.42948 12.1186 6.42948C12.3226 6.42948 12.4965 6.50132 12.6402 6.64502C12.7839 6.78871 12.8557 6.96259 12.8557 7.16664C12.8557 7.3707 12.7839 7.54457 12.6402 7.68827C12.4965 7.83196 12.3226 7.90381 12.1186 7.90381ZM2.99997 14.6666H10.9167V13H2.16664V13.8333C2.16664 14.0694 2.2465 14.2673 2.40622 14.4271C2.56594 14.5868 2.76386 14.6666 2.99997 14.6666Z" fill="#584B4D"/>
</svg>
